<mxfile host="Electron" modified="2024-06-01T12:48:42.322Z" agent="Mozilla/5.0 (Windows NT 10.0; Win64; x64) AppleWebKit/537.36 (KHTML, like Gecko) draw.io/21.3.7 Chrome/112.0.5615.204 Electron/24.5.0 Safari/537.36" etag="5dheW7yN_joCLWFLX1Y2" version="21.3.7" type="device">
  <diagram name="第 1 页" id="rQF1hnvIWxbzFskU29Pu">
    <mxGraphModel dx="1036" dy="606" grid="0" gridSize="10" guides="1" tooltips="1" connect="1" arrows="1" fold="1" page="1" pageScale="1" pageWidth="827" pageHeight="1169" math="0" shadow="0">
      <root>
        <mxCell id="0" />
        <mxCell id="1" parent="0" />
        <mxCell id="9pk178Tueio6Hrj2rrHB-7" style="edgeStyle=orthogonalEdgeStyle;rounded=0;orthogonalLoop=1;jettySize=auto;html=1;exitX=0.5;exitY=1;exitDx=0;exitDy=0;entryX=0.5;entryY=0;entryDx=0;entryDy=0;" edge="1" parent="1" source="9pk178Tueio6Hrj2rrHB-1" target="9pk178Tueio6Hrj2rrHB-2">
          <mxGeometry relative="1" as="geometry" />
        </mxCell>
        <mxCell id="9pk178Tueio6Hrj2rrHB-1" value="&lt;font style=&quot;font-size: 18px;&quot;&gt;SIFT算法检测图片特征点&lt;/font&gt;" style="rounded=1;whiteSpace=wrap;html=1;" vertex="1" parent="1">
          <mxGeometry x="261" y="86" width="231" height="37" as="geometry" />
        </mxCell>
        <mxCell id="9pk178Tueio6Hrj2rrHB-8" style="edgeStyle=orthogonalEdgeStyle;rounded=0;orthogonalLoop=1;jettySize=auto;html=1;exitX=0.5;exitY=1;exitDx=0;exitDy=0;entryX=0.5;entryY=0;entryDx=0;entryDy=0;" edge="1" parent="1" source="9pk178Tueio6Hrj2rrHB-2" target="9pk178Tueio6Hrj2rrHB-3">
          <mxGeometry relative="1" as="geometry" />
        </mxCell>
        <mxCell id="9pk178Tueio6Hrj2rrHB-2" value="&lt;font style=&quot;font-size: 18px;&quot;&gt;KNN匹配算法匹配特征点&lt;/font&gt;" style="rounded=1;whiteSpace=wrap;html=1;" vertex="1" parent="1">
          <mxGeometry x="256" y="142" width="241" height="37" as="geometry" />
        </mxCell>
        <mxCell id="9pk178Tueio6Hrj2rrHB-9" style="edgeStyle=orthogonalEdgeStyle;rounded=0;orthogonalLoop=1;jettySize=auto;html=1;exitX=0.5;exitY=1;exitDx=0;exitDy=0;entryX=0.5;entryY=0;entryDx=0;entryDy=0;" edge="1" parent="1" source="9pk178Tueio6Hrj2rrHB-3" target="9pk178Tueio6Hrj2rrHB-4">
          <mxGeometry relative="1" as="geometry" />
        </mxCell>
        <mxCell id="9pk178Tueio6Hrj2rrHB-3" value="&lt;font style=&quot;font-size: 18px;&quot;&gt;距离比值筛选匹配点&lt;/font&gt;" style="rounded=1;whiteSpace=wrap;html=1;" vertex="1" parent="1">
          <mxGeometry x="265.5" y="203" width="222" height="39" as="geometry" />
        </mxCell>
        <mxCell id="9pk178Tueio6Hrj2rrHB-10" style="edgeStyle=orthogonalEdgeStyle;rounded=0;orthogonalLoop=1;jettySize=auto;html=1;exitX=0.5;exitY=1;exitDx=0;exitDy=0;entryX=0.5;entryY=0;entryDx=0;entryDy=0;" edge="1" parent="1" source="9pk178Tueio6Hrj2rrHB-4" target="9pk178Tueio6Hrj2rrHB-5">
          <mxGeometry relative="1" as="geometry" />
        </mxCell>
        <mxCell id="9pk178Tueio6Hrj2rrHB-4" value="&lt;font style=&quot;font-size: 18px;&quot;&gt;相机内参矩阵计算&lt;/font&gt;" style="rounded=1;whiteSpace=wrap;html=1;" vertex="1" parent="1">
          <mxGeometry x="288.5" y="262" width="176" height="41" as="geometry" />
        </mxCell>
        <mxCell id="9pk178Tueio6Hrj2rrHB-11" style="edgeStyle=orthogonalEdgeStyle;rounded=0;orthogonalLoop=1;jettySize=auto;html=1;exitX=0.5;exitY=1;exitDx=0;exitDy=0;entryX=0.5;entryY=0;entryDx=0;entryDy=0;" edge="1" parent="1" source="9pk178Tueio6Hrj2rrHB-5" target="9pk178Tueio6Hrj2rrHB-6">
          <mxGeometry relative="1" as="geometry" />
        </mxCell>
        <mxCell id="9pk178Tueio6Hrj2rrHB-5" value="&lt;font style=&quot;font-size: 18px;&quot;&gt;三角测量法计算三维坐标&lt;/font&gt;" style="rounded=1;whiteSpace=wrap;html=1;" vertex="1" parent="1">
          <mxGeometry x="263" y="327" width="227" height="44" as="geometry" />
        </mxCell>
        <mxCell id="9pk178Tueio6Hrj2rrHB-15" style="edgeStyle=orthogonalEdgeStyle;rounded=0;orthogonalLoop=1;jettySize=auto;html=1;exitX=0.5;exitY=1;exitDx=0;exitDy=0;entryX=0.5;entryY=0;entryDx=0;entryDy=0;" edge="1" parent="1" source="9pk178Tueio6Hrj2rrHB-6" target="9pk178Tueio6Hrj2rrHB-14">
          <mxGeometry relative="1" as="geometry" />
        </mxCell>
        <mxCell id="9pk178Tueio6Hrj2rrHB-6" value="&lt;font style=&quot;font-size: 18px;&quot;&gt;可视化输出&lt;/font&gt;" style="rounded=1;whiteSpace=wrap;html=1;" vertex="1" parent="1">
          <mxGeometry x="311" y="390" width="128.5" height="40" as="geometry" />
        </mxCell>
        <mxCell id="9pk178Tueio6Hrj2rrHB-13" style="edgeStyle=orthogonalEdgeStyle;rounded=0;orthogonalLoop=1;jettySize=auto;html=1;exitX=0.5;exitY=1;exitDx=0;exitDy=0;entryX=0.5;entryY=0;entryDx=0;entryDy=0;" edge="1" parent="1" source="9pk178Tueio6Hrj2rrHB-12" target="9pk178Tueio6Hrj2rrHB-1">
          <mxGeometry relative="1" as="geometry" />
        </mxCell>
        <mxCell id="9pk178Tueio6Hrj2rrHB-12" value="&lt;font style=&quot;font-size: 18px;&quot;&gt;Input&lt;/font&gt;" style="rounded=1;whiteSpace=wrap;html=1;" vertex="1" parent="1">
          <mxGeometry x="311" y="32" width="131" height="36" as="geometry" />
        </mxCell>
        <mxCell id="9pk178Tueio6Hrj2rrHB-14" value="&lt;font style=&quot;font-size: 18px;&quot;&gt;Output&lt;/font&gt;" style="rounded=1;whiteSpace=wrap;html=1;" vertex="1" parent="1">
          <mxGeometry x="315.25" y="451" width="120" height="34" as="geometry" />
        </mxCell>
      </root>
    </mxGraphModel>
  </diagram>
</mxfile>
